<svg width="26" height="26" viewBox="0 0 26 26" fill="none" xmlns="http://www.w3.org/2000/svg">
<g clip-path="url(#clip0_49_1383)">
<path d="M13.0002 0.142578C9.5111 0.142578 9.07235 0.15865 7.70146 0.219721C6.33057 0.284007 5.39682 0.499364 4.57878 0.817578C3.72032 1.13953 2.94294 1.6459 2.30146 2.30097C1.64639 2.94245 1.14002 3.71983 0.818066 4.57829C0.499852 5.39472 0.282888 6.33008 0.220209 7.69615C0.159138 9.07026 0.143066 9.5074 0.143066 13.0013C0.143066 16.492 0.159138 16.9292 0.220209 18.3001C0.284495 19.6694 0.499852 20.6031 0.818066 21.4211C1.14753 22.2665 1.58628 22.9833 2.30146 23.6985C3.01503 24.4136 3.73182 24.854 4.57717 25.1819C5.39682 25.5001 6.32896 25.717 7.69824 25.7797C9.07074 25.8408 9.50789 25.8569 13.0002 25.8569C16.4925 25.8569 16.9281 25.8408 18.3006 25.7797C19.6682 25.7154 20.6052 25.5001 21.4232 25.1819C22.2811 24.8597 23.0579 24.3533 23.699 23.6985C24.4141 22.9833 24.8529 22.2665 25.1824 21.4211C25.499 20.6031 25.7159 19.6694 25.7802 18.3001C25.8413 16.9292 25.8573 16.492 25.8573 12.9997C25.8573 9.5074 25.8413 9.07026 25.7802 7.69776C25.7159 6.33008 25.499 5.39472 25.1824 4.57829C24.8604 3.71983 24.354 2.94245 23.699 2.30097C23.0575 1.6459 22.2801 1.13953 21.4216 0.817578C20.602 0.499364 19.6666 0.2824 18.299 0.219721C16.9265 0.15865 16.4909 0.142578 12.997 0.142578H13.0002ZM11.8479 2.46008H13.0018C16.4347 2.46008 16.8413 2.47133 18.1961 2.53401C19.4497 2.59026 20.1311 2.80079 20.5843 2.97597C21.1838 3.20901 21.6129 3.48865 22.0629 3.93865C22.5129 4.38865 22.7909 4.81615 23.024 5.41722C23.2007 5.86883 23.4097 6.55026 23.4659 7.80383C23.5286 9.15865 23.5415 9.56526 23.5415 12.9965C23.5415 16.4278 23.5286 16.836 23.4659 18.1908C23.4097 19.4444 23.1991 20.1242 23.024 20.5774C22.8164 21.1349 22.4876 21.6394 22.0613 22.0544C21.6113 22.5044 21.1838 22.7824 20.5827 23.0154C20.1327 23.1922 19.4513 23.4011 18.1961 23.459C16.8413 23.5201 16.4347 23.5345 13.0018 23.5345C9.56896 23.5345 9.16074 23.5201 7.80592 23.459C6.55235 23.4011 5.87253 23.1922 5.41932 23.0154C4.86137 22.8085 4.35635 22.4803 3.94074 22.0544C3.51368 21.6391 3.18431 21.134 2.97646 20.5758C2.80128 20.1242 2.59074 19.4428 2.53449 18.1892C2.47342 16.8344 2.46057 16.4278 2.46057 12.9933C2.46057 9.55883 2.47342 9.15543 2.53449 7.80061C2.59235 6.54704 2.80128 5.86561 2.97807 5.4124C3.2111 4.81293 3.49074 4.38383 3.94074 3.93383C4.39074 3.48383 4.81824 3.20579 5.41932 2.97276C5.87253 2.79597 6.55235 2.58704 7.80592 2.52919C8.99199 2.47454 9.45164 2.45847 11.8479 2.45686V2.46008ZM19.8643 4.59436C19.6617 4.59436 19.4611 4.63427 19.2739 4.71181C19.0867 4.78934 18.9166 4.90299 18.7733 5.04626C18.6301 5.18952 18.5164 5.35961 18.4389 5.54679C18.3614 5.73398 18.3215 5.93461 18.3215 6.13722C18.3215 6.33983 18.3614 6.54046 18.4389 6.72765C18.5164 6.91483 18.6301 7.08492 18.7733 7.22819C18.9166 7.37145 19.0867 7.4851 19.2739 7.56263C19.4611 7.64017 19.6617 7.68008 19.8643 7.68008C20.2735 7.68008 20.6659 7.51753 20.9553 7.22819C21.2446 6.93884 21.4072 6.54641 21.4072 6.13722C21.4072 5.72803 21.2446 5.3356 20.9553 5.04626C20.6659 4.75691 20.2735 4.59436 19.8643 4.59436ZM13.0018 6.39758C12.126 6.38391 11.2563 6.54461 10.4432 6.8703C9.63013 7.196 8.88996 7.68019 8.26581 8.29469C7.64165 8.90918 7.14597 9.6417 6.80763 10.4496C6.46929 11.2575 6.29505 12.1246 6.29505 13.0005C6.29505 13.8764 6.46929 14.7435 6.80763 15.5514C7.14597 16.3593 7.64165 17.0919 8.26581 17.7064C8.88996 18.3209 9.63013 18.805 10.4432 19.1307C11.2563 19.4564 12.126 19.6171 13.0018 19.6035C14.7352 19.5764 16.3884 18.8689 17.6046 17.6335C18.8209 16.3982 19.5025 14.7341 19.5025 13.0005C19.5025 11.2669 18.8209 9.60288 17.6046 8.36753C16.3884 7.13218 14.7352 6.42462 13.0018 6.39758ZM13.0018 8.71347C13.5647 8.71347 14.1221 8.82434 14.6421 9.03974C15.1621 9.25515 15.6346 9.57087 16.0327 9.96888C16.4307 10.3669 16.7464 10.8394 16.9618 11.3594C17.1772 11.8795 17.2881 12.4368 17.2881 12.9997C17.2881 13.5626 17.1772 14.12 16.9618 14.64C16.7464 15.16 16.4307 15.6325 16.0327 16.0306C15.6346 16.4286 15.1621 16.7443 14.6421 16.9597C14.1221 17.1751 13.5647 17.286 13.0018 17.286C11.865 17.286 10.7748 16.8344 9.97098 16.0306C9.16715 15.2267 8.71557 14.1365 8.71557 12.9997C8.71557 11.8629 9.16715 10.7727 9.97098 9.96888C10.7748 9.16506 11.865 8.71347 13.0018 8.71347Z" fill="#272834"/>
</g>
<defs>
<clipPath id="clip0_49_1383">
<rect width="25.7143" height="25.7143" fill="white" transform="translate(0.143066 0.142578)"/>
</clipPath>
</defs>
</svg>
