<svg width="284" height="38" viewBox="0 0 284 38" fill="none" xmlns="http://www.w3.org/2000/svg">
<path d="M43.144 2.77759H47.24L49.832 10.2976L52.456 2.77759H56.52L52.616 13.1136L55.496 20.3456L61.928 2.71359H66.728L57.64 25.4336H53.832L49.832 15.8976L45.864 25.4336H42.056L33 2.71359H37.736L44.2 20.3456L47.016 13.1136L43.144 2.77759ZM69.0555 25.4336V2.71359H79.1035C80.1488 2.71359 81.1088 2.92693 81.9835 3.35359C82.8795 3.78026 83.6475 4.35626 84.2875 5.08159C84.9488 5.80693 85.4502 6.61759 85.7915 7.51359C86.1542 8.40959 86.3355 9.32693 86.3355 10.2656C86.3355 11.2256 86.1648 12.1536 85.8235 13.0496C85.5035 13.9243 85.0342 14.6923 84.4155 15.3536C83.7968 16.0149 83.0715 16.5269 82.2395 16.8896L87.4235 25.4336H82.5595L77.8875 17.8176H73.4715V25.4336H69.0555ZM73.4715 13.9456H79.0075C79.5622 13.9456 80.0528 13.7856 80.4795 13.4656C80.9062 13.1243 81.2475 12.6763 81.5035 12.1216C81.7595 11.5669 81.8875 10.9483 81.8875 10.2656C81.8875 9.54026 81.7382 8.91093 81.4395 8.37759C81.1408 7.82293 80.7568 7.38559 80.2875 7.06559C79.8395 6.74559 79.3488 6.58559 78.8155 6.58559H73.4715V13.9456ZM90.3368 25.4336V2.71359H94.7528V25.4336H90.3368ZM116.485 6.58559H109.221V25.4336H104.837V6.58559H97.573V2.71359H116.485V6.58559ZM135.082 21.5616V25.4336H119.306V2.71359H134.794V6.58559H123.722V12.0576H133.29V15.6416H123.722V21.5616H135.082ZM138.524 25.4336V2.71359H148.572C149.618 2.71359 150.578 2.92693 151.452 3.35359C152.348 3.78026 153.116 4.35626 153.756 5.08159C154.418 5.80693 154.919 6.61759 155.26 7.51359C155.623 8.40959 155.804 9.32693 155.804 10.2656C155.804 11.2256 155.634 12.1536 155.292 13.0496C154.972 13.9243 154.503 14.6923 153.884 15.3536C153.266 16.0149 152.54 16.5269 151.708 16.8896L156.892 25.4336H152.028L147.356 17.8176H142.94V25.4336H138.524ZM142.94 13.9456H148.476C149.031 13.9456 149.522 13.7856 149.948 13.4656C150.375 13.1243 150.716 12.6763 150.972 12.1216C151.228 11.5669 151.356 10.9483 151.356 10.2656C151.356 9.54026 151.207 8.91093 150.908 8.37759C150.61 7.82293 150.226 7.38559 149.756 7.06559C149.308 6.74559 148.818 6.58559 148.284 6.58559H142.94V13.9456ZM174.144 2.77759H178.24L180.832 10.2976L183.456 2.77759H187.52L183.616 13.1136L186.496 20.3456L192.928 2.71359H197.728L188.64 25.4336H184.832L180.832 15.8976L176.864 25.4336H173.056L164 2.71359H168.736L175.2 20.3456L178.016 13.1136L174.144 2.77759ZM208.877 25.5936C207.213 25.5936 205.698 25.2736 204.333 24.6336C202.989 23.9936 201.826 23.1296 200.845 22.0416C199.885 20.9323 199.138 19.6949 198.605 18.3296C198.071 16.9429 197.805 15.5243 197.805 14.0736C197.805 12.5589 198.082 11.1189 198.637 9.75359C199.213 8.36693 199.991 7.14026 200.973 6.07359C201.975 4.98559 203.149 4.13226 204.493 3.51359C205.858 2.87359 207.351 2.55359 208.973 2.55359C210.615 2.55359 212.109 2.88426 213.453 3.54559C214.818 4.20693 215.981 5.09226 216.941 6.20159C217.901 7.31093 218.647 8.54826 219.181 9.91359C219.714 11.2789 219.981 12.6869 219.981 14.1376C219.981 15.6309 219.703 17.0709 219.149 18.4576C218.594 19.8229 217.815 21.0496 216.812 22.1376C215.831 23.2043 214.658 24.0469 213.293 24.6656C211.949 25.2843 210.477 25.5936 208.877 25.5936ZM202.285 14.0736C202.285 15.0549 202.434 16.0043 202.733 16.9216C203.031 17.8389 203.458 18.6603 204.013 19.3856C204.589 20.0896 205.282 20.6549 206.093 21.0816C206.925 21.4869 207.863 21.6896 208.909 21.6896C209.975 21.6896 210.925 21.4763 211.757 21.0496C212.589 20.6016 213.282 20.0149 213.837 19.2896C214.391 18.5429 214.807 17.7216 215.085 16.8256C215.383 15.9083 215.533 14.9909 215.533 14.0736C215.533 13.0923 215.373 12.1536 215.053 11.2576C214.754 10.3403 214.317 9.52959 213.741 8.82559C213.186 8.10026 212.493 7.53493 211.661 7.12959C210.85 6.70293 209.933 6.48959 208.909 6.48959C207.821 6.48959 206.861 6.71359 206.029 7.16159C205.218 7.58826 204.535 8.16426 203.981 8.88959C203.426 9.61493 202.999 10.4256 202.701 11.3216C202.423 12.2176 202.285 13.1349 202.285 14.0736ZM223.368 25.4336V2.71359H233.416C234.461 2.71359 235.421 2.92693 236.296 3.35359C237.192 3.78026 237.96 4.35626 238.6 5.08159C239.261 5.80693 239.763 6.61759 240.104 7.51359C240.467 8.40959 240.648 9.32693 240.648 10.2656C240.648 11.2256 240.477 12.1536 240.136 13.0496C239.816 13.9243 239.347 14.6923 238.728 15.3536C238.109 16.0149 237.384 16.5269 236.552 16.8896L241.736 25.4336H236.872L232.2 17.8176H227.784V25.4336H223.368ZM227.784 13.9456H233.32C233.875 13.9456 234.365 13.7856 234.792 13.4656C235.219 13.1243 235.56 12.6763 235.816 12.1216C236.072 11.5669 236.2 10.9483 236.2 10.2656C236.2 9.54026 236.051 8.91093 235.752 8.37759C235.453 7.82293 235.069 7.38559 234.6 7.06559C234.152 6.74559 233.661 6.58559 233.128 6.58559H227.784V13.9456ZM244.649 25.4336V2.74559H249.065V13.5296L258.601 2.71359H263.465L254.761 12.7936L264.009 25.4336H259.017L251.945 15.6416L249.065 18.6496V25.4336H244.649ZM279.592 8.66559C279.442 8.51626 279.165 8.31359 278.76 8.05759C278.376 7.80159 277.896 7.55626 277.32 7.32159C276.765 7.08693 276.157 6.88426 275.496 6.71359C274.834 6.52159 274.162 6.42559 273.48 6.42559C272.285 6.42559 271.378 6.64959 270.76 7.09759C270.162 7.54559 269.864 8.17493 269.864 8.98559C269.864 9.60426 270.056 10.0949 270.44 10.4576C270.824 10.8203 271.4 11.1296 272.168 11.3856C272.936 11.6416 273.896 11.9189 275.048 12.2176C276.541 12.5803 277.832 13.0283 278.92 13.5616C280.029 14.0736 280.872 14.7563 281.448 15.6096C282.045 16.4416 282.344 17.5509 282.344 18.9376C282.344 20.1536 282.12 21.1989 281.672 22.0736C281.224 22.9269 280.605 23.6203 279.816 24.1536C279.026 24.6869 278.13 25.0816 277.128 25.3376C276.125 25.5723 275.058 25.6896 273.928 25.6896C272.797 25.6896 271.666 25.5723 270.536 25.3376C269.405 25.1029 268.317 24.7723 267.272 24.3456C266.226 23.8976 265.266 23.3643 264.392 22.7456L266.344 18.9376C266.536 19.1296 266.877 19.3856 267.368 19.7056C267.858 20.0043 268.456 20.3136 269.16 20.6336C269.864 20.9323 270.632 21.1883 271.464 21.4016C272.296 21.6149 273.138 21.7216 273.992 21.7216C275.186 21.7216 276.093 21.5189 276.712 21.1136C277.33 20.7083 277.64 20.1323 277.64 19.3856C277.64 18.7029 277.394 18.1696 276.904 17.7856C276.413 17.4016 275.73 17.0709 274.856 16.7936C273.981 16.4949 272.946 16.1749 271.752 15.8336C270.322 15.4283 269.128 14.9803 268.168 14.4896C267.208 13.9776 266.493 13.3376 266.024 12.5696C265.554 11.8016 265.32 10.8416 265.32 9.68959C265.32 8.13226 265.682 6.83093 266.408 5.78559C267.154 4.71893 268.157 3.91893 269.416 3.38559C270.674 2.83093 272.072 2.55359 273.608 2.55359C274.674 2.55359 275.677 2.67093 276.616 2.90559C277.576 3.14026 278.472 3.44959 279.304 3.83359C280.136 4.21759 280.882 4.63359 281.544 5.08159L279.592 8.66559Z" fill="#272834"/>
<path d="M33.28 37.7316V36.0036H33.536C33.6853 36.0036 33.816 35.9449 33.928 35.8276C34.04 35.7049 34.136 35.5129 34.216 35.2516C34.296 34.9849 34.36 34.6302 34.408 34.1876C34.456 33.7449 34.4907 33.1982 34.512 32.5476L34.552 30.9636H38.072V36.0036H38.776V37.7316H38.136V36.6436H33.92V37.7316H33.28ZM34.496 36.0036H37.352V31.6036H35.216L35.192 32.6356C35.176 33.3076 35.1413 33.8702 35.088 34.3236C35.0347 34.7769 34.96 35.1396 34.864 35.4116C34.768 35.6836 34.6453 35.8809 34.496 36.0036ZM42.0387 36.6836C41.6387 36.6836 41.276 36.6036 40.9507 36.4436C40.6254 36.2836 40.3427 36.0676 40.1027 35.7956C39.868 35.5182 39.6867 35.2089 39.5587 34.8676C39.4307 34.5209 39.3667 34.1662 39.3667 33.8036C39.3667 33.4249 39.4334 33.0649 39.5667 32.7236C39.7054 32.3769 39.8947 32.0702 40.1347 31.8036C40.38 31.5316 40.6654 31.3182 40.9907 31.1636C41.316 31.0036 41.6707 30.9236 42.0547 30.9236C42.4547 30.9236 42.8174 31.0062 43.1427 31.1716C43.468 31.3369 43.748 31.5582 43.9827 31.8356C44.2174 32.1129 44.3987 32.4222 44.5267 32.7636C44.6547 33.1049 44.7187 33.4542 44.7187 33.8116C44.7187 34.1902 44.652 34.5529 44.5187 34.8996C44.3854 35.2409 44.196 35.5476 43.9507 35.8196C43.7107 36.0862 43.428 36.2969 43.1027 36.4516C42.7774 36.6062 42.4227 36.6836 42.0387 36.6836ZM40.0947 33.8036C40.0947 34.0916 40.14 34.3716 40.2307 34.6436C40.3267 34.9102 40.46 35.1476 40.6307 35.3556C40.8014 35.5636 41.0067 35.7289 41.2467 35.8516C41.4867 35.9742 41.7534 36.0356 42.0467 36.0356C42.3507 36.0356 42.6227 35.9716 42.8627 35.8436C43.1027 35.7156 43.3054 35.5449 43.4707 35.3316C43.6414 35.1182 43.7694 34.8782 43.8547 34.6116C43.9454 34.3449 43.9907 34.0756 43.9907 33.8036C43.9907 33.5156 43.9427 33.2382 43.8467 32.9716C43.756 32.7049 43.6227 32.4676 43.4467 32.2596C43.276 32.0462 43.0707 31.8809 42.8307 31.7636C42.596 31.6409 42.3347 31.5796 42.0467 31.5796C41.7427 31.5796 41.4707 31.6436 41.2307 31.7716C40.9907 31.8942 40.7854 32.0622 40.6147 32.2756C40.4494 32.4889 40.3214 32.7289 40.2307 32.9956C40.14 33.2569 40.0947 33.5262 40.0947 33.8036ZM45.7191 36.6436V30.9636H50.1031V36.6436H49.3831V31.6036H46.4391V36.6436H45.7191ZM53.7653 36.6836C53.3653 36.6836 53.0026 36.6036 52.6773 36.4436C52.3519 36.2836 52.0693 36.0676 51.8293 35.7956C51.5946 35.5182 51.4133 35.2089 51.2853 34.8676C51.1573 34.5209 51.0933 34.1662 51.0933 33.8036C51.0933 33.4249 51.1599 33.0649 51.2933 32.7236C51.4319 32.3769 51.6213 32.0702 51.8613 31.8036C52.1066 31.5316 52.3919 31.3182 52.7173 31.1636C53.0426 31.0036 53.3973 30.9236 53.7813 30.9236C54.1813 30.9236 54.5439 31.0062 54.8693 31.1716C55.1946 31.3369 55.4746 31.5582 55.7093 31.8356C55.9439 32.1129 56.1253 32.4222 56.2533 32.7636C56.3813 33.1049 56.4453 33.4542 56.4453 33.8116C56.4453 34.1902 56.3786 34.5529 56.2453 34.8996C56.1119 35.2409 55.9226 35.5476 55.6773 35.8196C55.4373 36.0862 55.1546 36.2969 54.8293 36.4516C54.5039 36.6062 54.1493 36.6836 53.7653 36.6836ZM51.8213 33.8036C51.8213 34.0916 51.8666 34.3716 51.9572 34.6436C52.0533 34.9102 52.1866 35.1476 52.3573 35.3556C52.5279 35.5636 52.7333 35.7289 52.9733 35.8516C53.2133 35.9742 53.4799 36.0356 53.7733 36.0356C54.0773 36.0356 54.3493 35.9716 54.5893 35.8436C54.8293 35.7156 55.0319 35.5449 55.1973 35.3316C55.3679 35.1182 55.4959 34.8782 55.5813 34.6116C55.6719 34.3449 55.7173 34.0756 55.7173 33.8036C55.7173 33.5156 55.6693 33.2382 55.5733 32.9716C55.4826 32.7049 55.3493 32.4676 55.1733 32.2596C55.0026 32.0462 54.7973 31.8809 54.5573 31.7636C54.3226 31.6409 54.0613 31.5796 53.7733 31.5796C53.4693 31.5796 53.1973 31.6436 52.9573 31.7716C52.7173 31.8942 52.5119 32.0622 52.3413 32.2756C52.1759 32.4889 52.0479 32.7289 51.9572 32.9956C51.8666 33.2569 51.8213 33.5262 51.8213 33.8036ZM62.3576 36.6436V32.3076L60.4856 35.6436H60.0456L58.1656 32.3076V36.6436H57.4456V30.9636H58.2056L60.2616 34.6516L62.3256 30.9636H63.0776V36.6436H62.3576ZM66.7418 36.6836C66.3418 36.6836 65.9791 36.6036 65.6538 36.4436C65.3285 36.2836 65.0458 36.0676 64.8058 35.7956C64.5711 35.5182 64.3898 35.2089 64.2618 34.8676C64.1338 34.5209 64.0698 34.1662 64.0698 33.8036C64.0698 33.4249 64.1365 33.0649 64.2698 32.7236C64.4085 32.3769 64.5978 32.0702 64.8378 31.8036C65.0831 31.5316 65.3685 31.3182 65.6938 31.1636C66.0191 31.0036 66.3738 30.9236 66.7578 30.9236C67.1578 30.9236 67.5205 31.0062 67.8458 31.1716C68.1711 31.3369 68.4511 31.5582 68.6858 31.8356C68.9205 32.1129 69.1018 32.4222 69.2298 32.7636C69.3578 33.1049 69.4218 33.4542 69.4218 33.8116C69.4218 34.1902 69.3551 34.5529 69.2218 34.8996C69.0885 35.2409 68.8991 35.5476 68.6538 35.8196C68.4138 36.0862 68.1311 36.2969 67.8058 36.4516C67.4805 36.6062 67.1258 36.6836 66.7418 36.6836ZM64.7978 33.8036C64.7978 34.0916 64.8431 34.3716 64.9338 34.6436C65.0298 34.9102 65.1631 35.1476 65.3338 35.3556C65.5045 35.5636 65.7098 35.7289 65.9498 35.8516C66.1898 35.9742 66.4565 36.0356 66.7498 36.0356C67.0538 36.0356 67.3258 35.9716 67.5658 35.8436C67.8058 35.7156 68.0085 35.5449 68.1738 35.3316C68.3445 35.1182 68.4725 34.8782 68.5578 34.6116C68.6485 34.3449 68.6938 34.0756 68.6938 33.8036C68.6938 33.5156 68.6458 33.2382 68.5498 32.9716C68.4591 32.7049 68.3258 32.4676 68.1498 32.2596C67.9791 32.0462 67.7738 31.8809 67.5338 31.7636C67.2991 31.6409 67.0378 31.5796 66.7498 31.5796C66.4458 31.5796 66.1738 31.6436 65.9338 31.7716C65.6938 31.8942 65.4885 32.0622 65.3178 32.2756C65.1525 32.4889 65.0245 32.7289 64.9338 32.9956C64.8431 33.2569 64.7978 33.5262 64.7978 33.8036ZM70.4222 36.6436V30.9636H73.7262V31.6036H71.1422V36.6436H70.4222ZM76.3377 30.9636H76.9457L79.2657 36.6436H78.4977L77.8257 34.9796H75.4417L74.7777 36.6436H74.0097L76.3377 30.9636ZM77.6657 34.4196L76.6417 31.7956L75.5857 34.4196H77.6657ZM81.4292 33.7636C81.4292 33.4169 81.4879 33.0782 81.6052 32.7476C81.7279 32.4116 81.9039 32.1076 82.1332 31.8356C82.3679 31.5582 82.6532 31.3396 82.9892 31.1796C83.3252 31.0142 83.7065 30.9316 84.1332 30.9316C84.6399 30.9316 85.0745 31.0489 85.4372 31.2836C85.7999 31.5129 86.0692 31.8089 86.2452 32.1716L85.6772 32.5396C85.5652 32.2996 85.4212 32.1102 85.2452 31.9716C85.0745 31.8276 84.8879 31.7262 84.6852 31.6676C84.4879 31.6089 84.2932 31.5796 84.1012 31.5796C83.7865 31.5796 83.5065 31.6436 83.2612 31.7716C83.0212 31.8996 82.8185 32.0702 82.6532 32.2836C82.4879 32.4969 82.3625 32.7369 82.2772 33.0036C82.1972 33.2649 82.1572 33.5289 82.1572 33.7956C82.1572 34.0889 82.2052 34.3716 82.3012 34.6436C82.4025 34.9156 82.5412 35.1556 82.7172 35.3636C82.8932 35.5716 83.1012 35.7369 83.3412 35.8596C83.5812 35.9822 83.8425 36.0436 84.1252 36.0436C84.3225 36.0436 84.5252 36.0089 84.7332 35.9396C84.9412 35.8702 85.1359 35.7636 85.3172 35.6196C85.4985 35.4702 85.6425 35.2782 85.7492 35.0436L86.3492 35.3716C86.2319 35.6542 86.0505 35.8942 85.8052 36.0916C85.5599 36.2889 85.2852 36.4382 84.9812 36.5396C84.6825 36.6409 84.3865 36.6916 84.0932 36.6916C83.7039 36.6916 83.3465 36.6089 83.0212 36.4436C82.6959 36.2729 82.4132 36.0489 82.1732 35.7716C81.9385 35.4889 81.7545 35.1742 81.6212 34.8276C81.4932 34.4756 81.4292 34.1209 81.4292 33.7636ZM91.3463 31.6036H89.3863V36.6436H88.6663V31.6036H86.7063V30.9636H91.3463V31.6036ZM92.7724 36.6676V36.0596H93.1324C93.2657 36.0596 93.3644 36.0276 93.4284 35.9636C93.4977 35.8942 93.5697 35.7929 93.6444 35.6596L93.8524 35.2116L91.4844 30.9636H92.2764L94.1804 34.4756L95.7804 30.9636H96.5404L94.1964 36.0036C94.079 36.2436 93.9537 36.4142 93.8204 36.5156C93.6924 36.6169 93.5137 36.6676 93.2844 36.6676H92.7724ZM96.7409 37.7316V36.0036H96.9969C97.1463 36.0036 97.2769 35.9449 97.3889 35.8276C97.5009 35.7049 97.5969 35.5129 97.6769 35.2516C97.7569 34.9849 97.8209 34.6302 97.8689 34.1876C97.9169 33.7449 97.9516 33.1982 97.9729 32.5476L98.0129 30.9636H101.533V36.0036H102.237V37.7316H101.597V36.6436H97.3809V37.7316H96.7409ZM97.9569 36.0036H100.813V31.6036H98.6769L98.6529 32.6356C98.6369 33.3076 98.6023 33.8702 98.5489 34.3236C98.4956 34.7769 98.4209 35.1396 98.3249 35.4116C98.2289 35.6836 98.1063 35.8809 97.9569 36.0036ZM107.052 36.0036V36.6436H103.196V30.9636H106.98V31.6036H103.916V33.4436H106.58V34.0436H103.916V36.0036H107.052ZM112.607 30.9636V36.6436H111.887V34.0596H108.759V36.6436H108.039V30.9636H108.759V33.4196H111.887V30.9636H112.607ZM118.065 31.6036H116.105V36.6436H115.385V31.6036H113.425V30.9636H118.065V31.6036ZM120.08 30.9636H120.688L123.008 36.6436H122.24L121.568 34.9796H119.184L118.52 36.6436H117.752L120.08 30.9636ZM121.408 34.4196L120.384 31.7956L119.328 34.4196H121.408ZM128.678 36.6436V32.3076L126.806 35.6436H126.366L124.486 32.3076V36.6436H123.766V30.9636H124.526L126.582 34.6516L128.646 30.9636H129.398V36.6436H128.678Z" fill="#272834"/>
<g clip-path="url(#clip0_50_662)">
<path d="M26.0984 7.21187L24.815 8.39901L20.0784 3.62693L21.2567 2.33401C21.6005 1.95854 22.0563 1.70611 22.5552 1.61491C23.0541 1.52372 23.5689 1.59873 24.0217 1.82859L25.7484 2.68662L26.6117 4.4262C26.8385 4.8836 26.911 5.40301 26.8184 5.9057C26.7258 6.40839 26.473 6.86695 26.0984 7.21187Z" fill="#FCFCFC"/>
<path d="M24.8149 8.39903L6.76656 25.1366L3.47656 21.8102L20.0782 3.62695L24.8149 8.39903Z" fill="#FCFCFC"/>
<path d="M25.7449 2.69117L27.4167 1.00684" stroke="#272834" stroke-linecap="round" stroke-linejoin="round"/>
<path d="M10.4883 8.09331H11.6549C11.9663 8.08982 12.2638 7.96317 12.4833 7.74069L17.4999 2.68652C17.7185 2.4676 18.0142 2.34473 18.3224 2.34473C18.6307 2.34473 18.9264 2.4676 19.1449 2.68652L20.0783 3.62683" stroke="#272834" stroke-linecap="round" stroke-linejoin="round"/>
<path d="M6.76662 25.1359L1.41162 27.2046L3.47662 21.8096L6.76662 25.1359Z" fill="#FCFCFC"/>
<path d="M1.40809 27.21L0.583252 28.0424" stroke="#272834" stroke-linecap="round" stroke-linejoin="round"/>
<path d="M25.7717 2.74637L22.4934 6.06096L20.0784 3.62791L21.2567 2.33498C21.6005 1.95951 22.0563 1.70708 22.5552 1.61589C23.0541 1.5247 23.5689 1.59971 24.0217 1.82957L25.7484 2.6876L25.7717 2.74637Z" fill="#FCFCFC"/>
<path d="M22.4932 6.06098L5.16823 23.5155L3.47656 21.8112L20.0782 3.62793L22.4932 6.06098Z" fill="#FCFCFC"/>
<path d="M5.16829 23.5149L1.56329 27.1468L1.41162 27.2056L3.47662 21.8105L5.16829 23.5149Z" fill="#FCFCFC"/>
<path d="M26.0984 7.21187L24.815 8.39901L20.0784 3.62693L21.2567 2.33401C21.6005 1.95854 22.0563 1.70611 22.5552 1.61491C23.0541 1.52372 23.5689 1.59873 24.0217 1.82859L25.7484 2.68662L26.6117 4.4262C26.8385 4.8836 26.911 5.40301 26.8184 5.9057C26.7258 6.40839 26.473 6.86695 26.0984 7.21187Z" stroke="#272834" stroke-linecap="round" stroke-linejoin="round"/>
<path d="M24.8149 8.39903L6.76656 25.1366L3.47656 21.8102L20.0782 3.62695L24.8149 8.39903Z" stroke="#272834" stroke-linecap="round" stroke-linejoin="round"/>
<path d="M6.76662 25.1359L1.41162 27.2046L3.47662 21.8096L6.76662 25.1359Z" stroke="#272834" stroke-linecap="round" stroke-linejoin="round"/>
</g>
<defs>
<clipPath id="clip0_50_662">
<rect width="28" height="28.2093" fill="white" transform="translate(0 0.418945)"/>
</clipPath>
</defs>
</svg>
