<svg width="284" height="38" viewBox="0 0 284 38" fill="none" xmlns="http://www.w3.org/2000/svg">
<path d="M43.144 2.344H47.24L49.832 9.864L52.456 2.344H56.52L52.616 12.68L55.496 19.912L61.928 2.28H66.728L57.64 25H53.832L49.832 15.464L45.864 25H42.056L33 2.28H37.736L44.2 19.912L47.016 12.68L43.144 2.344ZM69.0555 25V2.28H79.1035C80.1488 2.28 81.1088 2.49333 81.9835 2.92C82.8795 3.34667 83.6475 3.92267 84.2875 4.648C84.9488 5.37333 85.4502 6.184 85.7915 7.08C86.1542 7.976 86.3355 8.89333 86.3355 9.832C86.3355 10.792 86.1648 11.72 85.8235 12.616C85.5035 13.4907 85.0342 14.2587 84.4155 14.92C83.7968 15.5813 83.0715 16.0933 82.2395 16.456L87.4235 25H82.5595L77.8875 17.384H73.4715V25H69.0555ZM73.4715 13.512H79.0075C79.5622 13.512 80.0528 13.352 80.4795 13.032C80.9062 12.6907 81.2475 12.2427 81.5035 11.688C81.7595 11.1333 81.8875 10.5147 81.8875 9.832C81.8875 9.10667 81.7382 8.47733 81.4395 7.944C81.1408 7.38933 80.7568 6.952 80.2875 6.632C79.8395 6.312 79.3488 6.152 78.8155 6.152H73.4715V13.512ZM90.3368 25V2.28H94.7528V25H90.3368ZM116.485 6.152H109.221V25H104.837V6.152H97.573V2.28H116.485V6.152ZM135.082 21.128V25H119.306V2.28H134.794V6.152H123.722V11.624H133.29V15.208H123.722V21.128H135.082ZM138.524 25V2.28H148.572C149.618 2.28 150.578 2.49333 151.452 2.92C152.348 3.34667 153.116 3.92267 153.756 4.648C154.418 5.37333 154.919 6.184 155.26 7.08C155.623 7.976 155.804 8.89333 155.804 9.832C155.804 10.792 155.634 11.72 155.292 12.616C154.972 13.4907 154.503 14.2587 153.884 14.92C153.266 15.5813 152.54 16.0933 151.708 16.456L156.892 25H152.028L147.356 17.384H142.94V25H138.524ZM142.94 13.512H148.476C149.031 13.512 149.522 13.352 149.948 13.032C150.375 12.6907 150.716 12.2427 150.972 11.688C151.228 11.1333 151.356 10.5147 151.356 9.832C151.356 9.10667 151.207 8.47733 150.908 7.944C150.61 7.38933 150.226 6.952 149.756 6.632C149.308 6.312 148.818 6.152 148.284 6.152H142.94V13.512ZM174.144 2.344H178.24L180.832 9.864L183.456 2.344H187.52L183.616 12.68L186.496 19.912L192.928 2.28H197.728L188.64 25H184.832L180.832 15.464L176.864 25H173.056L164 2.28H168.736L175.2 19.912L178.016 12.68L174.144 2.344ZM208.877 25.16C207.213 25.16 205.698 24.84 204.333 24.2C202.989 23.56 201.826 22.696 200.845 21.608C199.885 20.4987 199.138 19.2613 198.605 17.896C198.071 16.5093 197.805 15.0907 197.805 13.64C197.805 12.1253 198.082 10.6853 198.637 9.32C199.213 7.93333 199.991 6.70667 200.973 5.64C201.975 4.552 203.149 3.69867 204.493 3.08C205.858 2.44 207.351 2.12 208.973 2.12C210.615 2.12 212.109 2.45067 213.453 3.112C214.818 3.77333 215.981 4.65867 216.941 5.768C217.901 6.87733 218.647 8.11467 219.181 9.48C219.714 10.8453 219.981 12.2533 219.981 13.704C219.981 15.1973 219.703 16.6373 219.149 18.024C218.594 19.3893 217.815 20.616 216.812 21.704C215.831 22.7707 214.658 23.6133 213.293 24.232C211.949 24.8507 210.477 25.16 208.877 25.16ZM202.285 13.64C202.285 14.6213 202.434 15.5707 202.733 16.488C203.031 17.4053 203.458 18.2267 204.013 18.952C204.589 19.656 205.282 20.2213 206.093 20.648C206.925 21.0533 207.863 21.256 208.909 21.256C209.975 21.256 210.925 21.0427 211.757 20.616C212.589 20.168 213.282 19.5813 213.837 18.856C214.391 18.1093 214.807 17.288 215.085 16.392C215.383 15.4747 215.533 14.5573 215.533 13.64C215.533 12.6587 215.373 11.72 215.053 10.824C214.754 9.90667 214.317 9.096 213.741 8.392C213.186 7.66667 212.493 7.10133 211.661 6.696C210.85 6.26933 209.933 6.056 208.909 6.056C207.821 6.056 206.861 6.28 206.029 6.728C205.218 7.15467 204.535 7.73067 203.981 8.456C203.426 9.18133 202.999 9.992 202.701 10.888C202.423 11.784 202.285 12.7013 202.285 13.64ZM223.368 25V2.28H233.416C234.461 2.28 235.421 2.49333 236.296 2.92C237.192 3.34667 237.96 3.92267 238.6 4.648C239.261 5.37333 239.763 6.184 240.104 7.08C240.467 7.976 240.648 8.89333 240.648 9.832C240.648 10.792 240.477 11.72 240.136 12.616C239.816 13.4907 239.347 14.2587 238.728 14.92C238.109 15.5813 237.384 16.0933 236.552 16.456L241.736 25H236.872L232.2 17.384H227.784V25H223.368ZM227.784 13.512H233.32C233.875 13.512 234.365 13.352 234.792 13.032C235.219 12.6907 235.56 12.2427 235.816 11.688C236.072 11.1333 236.2 10.5147 236.2 9.832C236.2 9.10667 236.051 8.47733 235.752 7.944C235.453 7.38933 235.069 6.952 234.6 6.632C234.152 6.312 233.661 6.152 233.128 6.152H227.784V13.512ZM244.649 25V2.312H249.065V13.096L258.601 2.28H263.465L254.761 12.36L264.009 25H259.017L251.945 15.208L249.065 18.216V25H244.649ZM279.592 8.232C279.442 8.08267 279.165 7.88 278.76 7.624C278.376 7.368 277.896 7.12267 277.32 6.888C276.765 6.65333 276.157 6.45067 275.496 6.28C274.834 6.088 274.162 5.992 273.48 5.992C272.285 5.992 271.378 6.216 270.76 6.664C270.162 7.112 269.864 7.74133 269.864 8.552C269.864 9.17067 270.056 9.66133 270.44 10.024C270.824 10.3867 271.4 10.696 272.168 10.952C272.936 11.208 273.896 11.4853 275.048 11.784C276.541 12.1467 277.832 12.5947 278.92 13.128C280.029 13.64 280.872 14.3227 281.448 15.176C282.045 16.008 282.344 17.1173 282.344 18.504C282.344 19.72 282.12 20.7653 281.672 21.64C281.224 22.4933 280.605 23.1867 279.816 23.72C279.026 24.2533 278.13 24.648 277.128 24.904C276.125 25.1387 275.058 25.256 273.928 25.256C272.797 25.256 271.666 25.1387 270.536 24.904C269.405 24.6693 268.317 24.3387 267.272 23.912C266.226 23.464 265.266 22.9307 264.392 22.312L266.344 18.504C266.536 18.696 266.877 18.952 267.368 19.272C267.858 19.5707 268.456 19.88 269.16 20.2C269.864 20.4987 270.632 20.7547 271.464 20.968C272.296 21.1813 273.138 21.288 273.992 21.288C275.186 21.288 276.093 21.0853 276.712 20.68C277.33 20.2747 277.64 19.6987 277.64 18.952C277.64 18.2693 277.394 17.736 276.904 17.352C276.413 16.968 275.73 16.6373 274.856 16.36C273.981 16.0613 272.946 15.7413 271.752 15.4C270.322 14.9947 269.128 14.5467 268.168 14.056C267.208 13.544 266.493 12.904 266.024 12.136C265.554 11.368 265.32 10.408 265.32 9.256C265.32 7.69867 265.682 6.39733 266.408 5.352C267.154 4.28533 268.157 3.48533 269.416 2.952C270.674 2.39733 272.072 2.12 273.608 2.12C274.674 2.12 275.677 2.23733 276.616 2.472C277.576 2.70667 278.472 3.016 279.304 3.4C280.136 3.784 280.882 4.2 281.544 4.648L279.592 8.232Z" fill="#FCFCFC"/>
<path d="M33.28 37.088V35.36H33.536C33.6853 35.36 33.816 35.3013 33.928 35.184C34.04 35.0613 34.136 34.8693 34.216 34.608C34.296 34.3413 34.36 33.9867 34.408 33.544C34.456 33.1013 34.4907 32.5547 34.512 31.904L34.552 30.32H38.072V35.36H38.776V37.088H38.136V36H33.92V37.088H33.28ZM34.496 35.36H37.352V30.96H35.216L35.192 31.992C35.176 32.664 35.1413 33.2267 35.088 33.68C35.0347 34.1333 34.96 34.496 34.864 34.768C34.768 35.04 34.6453 35.2373 34.496 35.36ZM42.0387 36.04C41.6387 36.04 41.276 35.96 40.9507 35.8C40.6254 35.64 40.3427 35.424 40.1027 35.152C39.868 34.8747 39.6867 34.5653 39.5587 34.224C39.4307 33.8773 39.3667 33.5227 39.3667 33.16C39.3667 32.7813 39.4334 32.4213 39.5667 32.08C39.7054 31.7333 39.8947 31.4267 40.1347 31.16C40.38 30.888 40.6654 30.6747 40.9907 30.52C41.316 30.36 41.6707 30.28 42.0547 30.28C42.4547 30.28 42.8174 30.3627 43.1427 30.528C43.468 30.6933 43.748 30.9147 43.9827 31.192C44.2174 31.4693 44.3987 31.7787 44.5267 32.12C44.6547 32.4613 44.7187 32.8107 44.7187 33.168C44.7187 33.5467 44.652 33.9093 44.5187 34.256C44.3854 34.5973 44.196 34.904 43.9507 35.176C43.7107 35.4427 43.428 35.6533 43.1027 35.808C42.7774 35.9627 42.4227 36.04 42.0387 36.04ZM40.0947 33.16C40.0947 33.448 40.14 33.728 40.2307 34C40.3267 34.2667 40.46 34.504 40.6307 34.712C40.8014 34.92 41.0067 35.0853 41.2467 35.208C41.4867 35.3307 41.7534 35.392 42.0467 35.392C42.3507 35.392 42.6227 35.328 42.8627 35.2C43.1027 35.072 43.3054 34.9013 43.4707 34.688C43.6414 34.4747 43.7694 34.2347 43.8547 33.968C43.9454 33.7013 43.9907 33.432 43.9907 33.16C43.9907 32.872 43.9427 32.5947 43.8467 32.328C43.756 32.0613 43.6227 31.824 43.4467 31.616C43.276 31.4027 43.0707 31.2373 42.8307 31.12C42.596 30.9973 42.3347 30.936 42.0467 30.936C41.7427 30.936 41.4707 31 41.2307 31.128C40.9907 31.2507 40.7854 31.4187 40.6147 31.632C40.4494 31.8453 40.3214 32.0853 40.2307 32.352C40.14 32.6133 40.0947 32.8827 40.0947 33.16ZM45.7191 36V30.32H50.1031V36H49.3831V30.96H46.4391V36H45.7191ZM53.7653 36.04C53.3653 36.04 53.0026 35.96 52.6773 35.8C52.3519 35.64 52.0693 35.424 51.8293 35.152C51.5946 34.8747 51.4133 34.5653 51.2853 34.224C51.1573 33.8773 51.0933 33.5227 51.0933 33.16C51.0933 32.7813 51.1599 32.4213 51.2933 32.08C51.4319 31.7333 51.6213 31.4267 51.8613 31.16C52.1066 30.888 52.3919 30.6747 52.7173 30.52C53.0426 30.36 53.3973 30.28 53.7813 30.28C54.1813 30.28 54.5439 30.3627 54.8693 30.528C55.1946 30.6933 55.4746 30.9147 55.7093 31.192C55.9439 31.4693 56.1253 31.7787 56.2533 32.12C56.3813 32.4613 56.4453 32.8107 56.4453 33.168C56.4453 33.5467 56.3786 33.9093 56.2453 34.256C56.1119 34.5973 55.9226 34.904 55.6773 35.176C55.4373 35.4427 55.1546 35.6533 54.8293 35.808C54.5039 35.9627 54.1493 36.04 53.7653 36.04ZM51.8213 33.16C51.8213 33.448 51.8666 33.728 51.9572 34C52.0533 34.2667 52.1866 34.504 52.3573 34.712C52.5279 34.92 52.7333 35.0853 52.9733 35.208C53.2133 35.3307 53.4799 35.392 53.7733 35.392C54.0773 35.392 54.3493 35.328 54.5893 35.2C54.8293 35.072 55.0319 34.9013 55.1973 34.688C55.3679 34.4747 55.4959 34.2347 55.5813 33.968C55.6719 33.7013 55.7173 33.432 55.7173 33.16C55.7173 32.872 55.6693 32.5947 55.5733 32.328C55.4826 32.0613 55.3493 31.824 55.1733 31.616C55.0026 31.4027 54.7973 31.2373 54.5573 31.12C54.3226 30.9973 54.0613 30.936 53.7733 30.936C53.4693 30.936 53.1973 31 52.9573 31.128C52.7173 31.2507 52.5119 31.4187 52.3413 31.632C52.1759 31.8453 52.0479 32.0853 51.9572 32.352C51.8666 32.6133 51.8213 32.8827 51.8213 33.16ZM62.3576 36V31.664L60.4856 35H60.0456L58.1656 31.664V36H57.4456V30.32H58.2056L60.2616 34.008L62.3256 30.32H63.0776V36H62.3576ZM66.7418 36.04C66.3418 36.04 65.9791 35.96 65.6538 35.8C65.3285 35.64 65.0458 35.424 64.8058 35.152C64.5711 34.8747 64.3898 34.5653 64.2618 34.224C64.1338 33.8773 64.0698 33.5227 64.0698 33.16C64.0698 32.7813 64.1365 32.4213 64.2698 32.08C64.4085 31.7333 64.5978 31.4267 64.8378 31.16C65.0831 30.888 65.3685 30.6747 65.6938 30.52C66.0191 30.36 66.3738 30.28 66.7578 30.28C67.1578 30.28 67.5205 30.3627 67.8458 30.528C68.1711 30.6933 68.4511 30.9147 68.6858 31.192C68.9205 31.4693 69.1018 31.7787 69.2298 32.12C69.3578 32.4613 69.4218 32.8107 69.4218 33.168C69.4218 33.5467 69.3551 33.9093 69.2218 34.256C69.0885 34.5973 68.8991 34.904 68.6538 35.176C68.4138 35.4427 68.1311 35.6533 67.8058 35.808C67.4805 35.9627 67.1258 36.04 66.7418 36.04ZM64.7978 33.16C64.7978 33.448 64.8431 33.728 64.9338 34C65.0298 34.2667 65.1631 34.504 65.3338 34.712C65.5045 34.92 65.7098 35.0853 65.9498 35.208C66.1898 35.3307 66.4565 35.392 66.7498 35.392C67.0538 35.392 67.3258 35.328 67.5658 35.2C67.8058 35.072 68.0085 34.9013 68.1738 34.688C68.3445 34.4747 68.4725 34.2347 68.5578 33.968C68.6485 33.7013 68.6938 33.432 68.6938 33.16C68.6938 32.872 68.6458 32.5947 68.5498 32.328C68.4591 32.0613 68.3258 31.824 68.1498 31.616C67.9791 31.4027 67.7738 31.2373 67.5338 31.12C67.2991 30.9973 67.0378 30.936 66.7498 30.936C66.4458 30.936 66.1738 31 65.9338 31.128C65.6938 31.2507 65.4885 31.4187 65.3178 31.632C65.1525 31.8453 65.0245 32.0853 64.9338 32.352C64.8431 32.6133 64.7978 32.8827 64.7978 33.16ZM70.4222 36V30.32H73.7262V30.96H71.1422V36H70.4222ZM76.3377 30.32H76.9457L79.2657 36H78.4977L77.8257 34.336H75.4417L74.7777 36H74.0097L76.3377 30.32ZM77.6657 33.776L76.6417 31.152L75.5857 33.776H77.6657ZM81.4292 33.12C81.4292 32.7733 81.4879 32.4347 81.6052 32.104C81.7279 31.768 81.9039 31.464 82.1332 31.192C82.3679 30.9147 82.6532 30.696 82.9892 30.536C83.3252 30.3707 83.7065 30.288 84.1332 30.288C84.6399 30.288 85.0745 30.4053 85.4372 30.64C85.7999 30.8693 86.0692 31.1653 86.2452 31.528L85.6772 31.896C85.5652 31.656 85.4212 31.4667 85.2452 31.328C85.0745 31.184 84.8879 31.0827 84.6852 31.024C84.4879 30.9653 84.2932 30.936 84.1012 30.936C83.7865 30.936 83.5065 31 83.2612 31.128C83.0212 31.256 82.8185 31.4267 82.6532 31.64C82.4879 31.8533 82.3625 32.0933 82.2772 32.36C82.1972 32.6213 82.1572 32.8853 82.1572 33.152C82.1572 33.4453 82.2052 33.728 82.3012 34C82.4025 34.272 82.5412 34.512 82.7172 34.72C82.8932 34.928 83.1012 35.0933 83.3412 35.216C83.5812 35.3387 83.8425 35.4 84.1252 35.4C84.3225 35.4 84.5252 35.3653 84.7332 35.296C84.9412 35.2267 85.1359 35.12 85.3172 34.976C85.4985 34.8267 85.6425 34.6347 85.7492 34.4L86.3492 34.728C86.2319 35.0107 86.0505 35.2507 85.8052 35.448C85.5599 35.6453 85.2852 35.7947 84.9812 35.896C84.6825 35.9973 84.3865 36.048 84.0932 36.048C83.7039 36.048 83.3465 35.9653 83.0212 35.8C82.6959 35.6293 82.4132 35.4053 82.1732 35.128C81.9385 34.8453 81.7545 34.5307 81.6212 34.184C81.4932 33.832 81.4292 33.4773 81.4292 33.12ZM91.3463 30.96H89.3863V36H88.6663V30.96H86.7063V30.32H91.3463V30.96ZM92.7724 36.024V35.416H93.1324C93.2657 35.416 93.3644 35.384 93.4284 35.32C93.4977 35.2507 93.5697 35.1493 93.6444 35.016L93.8524 34.568L91.4844 30.32H92.2764L94.1804 33.832L95.7804 30.32H96.5404L94.1964 35.36C94.079 35.6 93.9537 35.7707 93.8204 35.872C93.6924 35.9733 93.5137 36.024 93.2844 36.024H92.7724ZM96.7409 37.088V35.36H96.9969C97.1463 35.36 97.2769 35.3013 97.3889 35.184C97.5009 35.0613 97.5969 34.8693 97.6769 34.608C97.7569 34.3413 97.8209 33.9867 97.8689 33.544C97.9169 33.1013 97.9516 32.5547 97.9729 31.904L98.0129 30.32H101.533V35.36H102.237V37.088H101.597V36H97.3809V37.088H96.7409ZM97.9569 35.36H100.813V30.96H98.6769L98.6529 31.992C98.6369 32.664 98.6023 33.2267 98.5489 33.68C98.4956 34.1333 98.4209 34.496 98.3249 34.768C98.2289 35.04 98.1063 35.2373 97.9569 35.36ZM107.052 35.36V36H103.196V30.32H106.98V30.96H103.916V32.8H106.58V33.4H103.916V35.36H107.052ZM112.607 30.32V36H111.887V33.416H108.759V36H108.039V30.32H108.759V32.776H111.887V30.32H112.607ZM118.065 30.96H116.105V36H115.385V30.96H113.425V30.32H118.065V30.96ZM120.08 30.32H120.688L123.008 36H122.24L121.568 34.336H119.184L118.52 36H117.752L120.08 30.32ZM121.408 33.776L120.384 31.152L119.328 33.776H121.408ZM128.678 36V31.664L126.806 35H126.366L124.486 31.664V36H123.766V30.32H124.526L126.582 34.008L128.646 30.32H129.398V36H128.678Z" fill="#FCFCFC"/>
<g clip-path="url(#clip0_40_1643)">
<path d="M26.0984 6.74134L24.815 7.91968L20.0784 3.18301L21.2567 1.89968C21.6005 1.527 22.0563 1.27644 22.5552 1.18592C23.0541 1.09541 23.5689 1.16986 24.0217 1.39801L25.7484 2.24968L26.6117 3.97635C26.8385 4.43035 26.911 4.94591 26.8184 5.44487C26.7258 5.94383 26.473 6.39899 26.0984 6.74134Z" fill="white"/>
<path d="M24.8149 7.92026L6.76656 24.5336L3.47656 21.2319L20.0782 3.18359L24.8149 7.92026Z" fill="white"/>
<path d="M25.7449 2.25582L27.4167 0.583984" stroke="#272834" stroke-linecap="round" stroke-linejoin="round"/>
<path d="M10.4883 7.61803H11.6549C11.9663 7.61457 12.2638 7.48887 12.4833 7.26803L17.4999 2.25137C17.7185 2.03407 18.0142 1.91211 18.3224 1.91211C18.6307 1.91211 18.9264 2.03407 19.1449 2.25137L20.0783 3.1847" stroke="#272834" stroke-linecap="round" stroke-linejoin="round"/>
<path d="M6.76662 24.5341L1.41162 26.5874L3.47662 21.2324L6.76662 24.5341Z" fill="white"/>
<path d="M1.40809 26.5918L0.583252 27.4166" stroke="#272834" stroke-linecap="round" stroke-linejoin="round"/>
<path d="M25.7717 2.30996L22.4934 5.59997L20.0784 3.18496L21.2567 1.90163C21.6005 1.52895 22.0563 1.27839 22.5552 1.18788C23.0541 1.09736 23.5689 1.17181 24.0217 1.39996L25.7484 2.25163L25.7717 2.30996Z" fill="white"/>
<path d="M22.4932 5.60055L5.16823 22.9255L3.47656 21.2339L20.0782 3.18555L22.4932 5.60055Z" fill="white"/>
<path d="M5.16829 22.9241L1.56329 26.5291L1.41162 26.5874L3.47662 21.2324L5.16829 22.9241Z" fill="white"/>
<path d="M26.0984 6.74135L24.815 7.91968L20.0784 3.18301L21.2567 1.89968C21.6005 1.527 22.0563 1.27644 22.5552 1.18592C23.0541 1.09541 23.5689 1.16986 24.0217 1.39801L25.7484 2.24968L26.6117 3.97635C26.8385 4.43035 26.911 4.94591 26.8184 5.44487C26.7258 5.94383 26.473 6.39899 26.0984 6.74135Z" stroke="#272834" stroke-linecap="round" stroke-linejoin="round"/>
<path d="M24.8149 7.92026L6.76656 24.5336L3.47656 21.2319L20.0782 3.18359L24.8149 7.92026Z" stroke="#272834" stroke-linecap="round" stroke-linejoin="round"/>
<path d="M6.76662 24.5341L1.41162 26.5874L3.47662 21.2324L6.76662 24.5341Z" stroke="#272834" stroke-linecap="round" stroke-linejoin="round"/>
</g>
<defs>
<clipPath id="clip0_40_1643">
<rect width="28" height="28" fill="white"/>
</clipPath>
</defs>
</svg>
